PathFileType	3	(X/Y/Z)	C:\Users\koon_\Desktop\
DataRate	CameraRate	NumFrames	NumMarkers	Units	OrigDataRate	OrigDataStartFrame	OrigNumFrames
100.0	100.0	14	27	mm	100.0	414	3309	
Frame#	Time	get:LFHD			get:RFHD			get:LBHD			get:RBHD			get:C7			get:T10			get:CLAV			get:STRN			get:RBAK			get:LSHO			get:LUPA			get:LELB			get:LFRA			get:LWRA			get:LWRB			get:LFIN			get:RSHO			get:RUPA			get:RELB			get:RFRA			get:RWRA			get:RWRB			get:RFIN			get:LASI			get:RASI			get:LPSI			get:RPSI			
		X1	Y1	Z1	X2	Y2	Z2	X3	Y3	Z3	X4	Y4	Z4	X5	Y5	Z5	X6	Y6	Z6	X7	Y7	Z7	X8	Y8	Z8	X9	Y9	Z9	X10	Y10	Z10	X11	Y11	Z11	X12	Y12	Z12	X13	Y13	Z13	X14	Y14	Z14	X15	Y15	Z15	X16	Y16	Z16	X17	Y17	Z17	X18	Y18	Z18	X19	Y19	Z19	X20	Y20	Z20	X21	Y21	Z21	X22	Y22	Z22	X23	Y23	Z23	X24	Y24	Z24	X25	Y25	Z25	X26	Y26	Z26	X27	Y27	Z27	
414	4.13	98.867462	1564.2507	-62.955746	-42.268425	1556.7904	-63.523239	75.800056	1557.5758	-223.60406	-52.620495	1526.5959	-227.69621	21.121281	1330.7826	-235.54288	-2.2241759	1127.723	-261.55975	49.136093	1277.2001	-39.371647	44.081993	1083.3605	13.010693	-78.602722	1267.541	-247.06728	162.96545	1332.7515	-176.10486	253.71964	1196.1648	-159.79456	274.60712	997.71777	-165.91695	281.34109	874.04944	-87.241142	257.25238	793.19714	-63.131592	296.97177	788.84442	-138.49684	316.35168	719.49628	-68.954987	-87.084518	1351.9802	-130.01569	-145.45	1260.726	19.714977	-179.21664	1163.5842	98.429558	-121.73271	1201.1534	169.57477	-68.596992	1117.6589	306.62955	-148.18567	1116.5093	310.6221	-87.065292	1125.7173	396.22781	151.57471	894.07318	-28.359411	-114.20075	879.85767	-26.317074	58.944958	945.25275	-244.65215	-30.566723	943.61688	-245.58864
415	4.14	99.105133	1564.473	-63.058502	-42.0089	1557.2935	-63.469387	75.940155	1557.2043	-223.67339	-52.531021	1526.427	-227.56937	21.177267	1331.1101	-234.87643	-2.3361752	1127.9176	-261.35052	49.048344	1276.9084	-38.922237	44.463135	1083.0583	13.114428	-78.370705	1267.8329	-246.76923	162.98177	1332.9655	-175.34966	253.62849	1196.2601	-159.53508	274.6731	997.89844	-166.21642	281.52695	874.08862	-87.732208	257.55609	793.18408	-63.684978	297.14291	788.96234	-139.08228	316.79068	719.65631	-69.729012	-87.456017	1351.6658	-129.46794	-146.52748	1255.7229	18.720091	-180.16936	1156.3954	94.727112	-122.48742	1191.9858	166.78847	-69.452286	1105.3135	301.72919	-149.0854	1103.9955	305.73999	-87.773666	1110.8219	391.54214	151.94945	894.02368	-28.907423	-113.83469	879.68719	-25.71097	58.365891	945.53955	-244.79477	-31.121807	943.84863	-245.39616
416	4.15	99.407845	1564.6652	-63.13142	-41.732689	1557.7148	-63.45924	76.065147	1556.9117	-223.7182	-52.458279	1526.3446	-227.31801	21.264435	1331.4885	-234.42368	-2.4221435	1128.0178	-260.94748	48.969986	1276.7134	-38.538109	44.615803	1082.674	13.068191	-78.141922	1268.1373	-246.53357	163.02432	1333.1843	-174.69312	253.64015	1196.3613	-159.24783	274.74869	998.07166	-166.52966	281.72382	874.10968	-88.288399	257.879	793.18506	-64.296516	297.26755	789.07159	-139.77475	317.1861	719.73865	-70.554153	-87.752869	1351.4072	-128.76259	-147.46432	1251.1466	17.873196	-180.99684	1149.7992	90.957329	-123.71709	1183.9169	163.96463	-70.784409	1095.3219	297.44086	-150.36736	1092.965	301.11374	-89.602341	1098.7275	387.39441	152.36794	893.96698	-29.440981	-113.11698	879.11609	-24.357834	57.769394	945.76172	-244.81763	-31.798866	944.03027	-245.02231
417	4.16	99.694092	1564.8643	-63.207985	-41.470303	1558.0826	-63.353493	76.191376	1556.7017	-223.73775	-52.365685	1526.3141	-227.25841	21.310268	1331.7998	-233.98753	-2.4371762	1128.234	-260.79279	48.901047	1276.576	-38.109203	44.813328	1082.3878	14.096921	-77.836975	1268.4209	-246.35651	163.08821	1333.3555	-174.10559	253.71638	1196.5342	-158.93134	274.75522	998.23523	-166.77161	281.92438	874.12311	-88.921364	258.18835	793.14758	-64.999435	297.33493	789.1488	-140.67136	317.57632	719.79492	-71.585861	-88.034767	1351.1742	-128.17163	-148.33276	1247.0365	16.889215	-182.04073	1143.6724	87.256523	-125.58226	1176.9784	161.05136	-72.421417	1087.5602	293.81378	-151.99799	1083.5288	296.67984	-92.205643	1089.2139	383.58926	152.78653	893.91058	-29.975199	-112.5812	879.40961	-24.556717	57.154495	945.99414	-244.80219	-32.377041	944.2356	-244.76111
418	4.17	99.982735	1565.015	-63.242458	-41.180523	1558.3105	-63.208408	76.310844	1556.5739	-223.72588	-52.240162	1526.241	-227.06953	21.317377	1332.0797	-233.65613	-2.3971188	1128.4409	-260.54871	48.801075	1276.5	-37.776806	44.975193	1082.2705	14.450126	-77.597862	1268.6743	-246.23419	163.04993	1333.4485	-173.76564	253.85532	1196.6592	-158.56271	274.68607	998.39471	-167.00192	282.15613	874.06171	-89.51265	258.48312	793.03577	-65.695183	297.36771	789.22913	-141.52203	317.90662	719.72357	-72.670937	-88.36377	1350.8622	-127.52733	-149.22659	1243.395	15.902367	-183.59216	1138.0269	83.468834	-127.921	1171.3071	158.53218	-74.374779	1081.4979	290.65894	-153.86633	1075.7089	292.68637	-95.239296	1081.7823	380.14999	153.11905	893.81732	-30.466732	-112.07169	879.13531	-23.319675	56.580814	946.16888	-244.72955	-32.952404	944.45062	-244.41827
419	4.18	100.25563	1565.1432	-63.253231	-40.874977	1558.504	-63.038528	76.44487	1556.4093	-223.70732	-52.144997	1526.1278	-226.82497	21.28229	1332.2272	-233.35947	-2.3998764	1128.5743	-260.24881	48.620987	1276.4624	-37.528595	45.093613	1082.2137	14.71445	-77.435493	1268.8961	-246.13814	162.94698	1333.4902	-173.51591	253.98668	1196.9132	-158.24292	274.69614	998.54156	-167.12891	282.3663	874.03479	-90.023315	258.78134	792.88428	-66.448441	297.52063	789.31268	-142.28465	318.16226	719.57904	-73.701752	-88.651878	1350.5771	-127.23096	-150.13733	1240.3295	15.015344	-185.04756	1133.5984	80.41246	-130.27246	1166.9017	156.17195	-76.450867	1076.7542	287.83475	-155.86435	1069.7542	289.1088	-97.960159	1076.0593	377.08975	153.54378	893.8158	-30.832779	-111.67113	878.9812	-22.654512	56.054008	946.40344	-244.67119	-33.42794	944.64764	-243.99847
420	4.19	100.57302	1565.2063	-63.278191	-40.564556	1558.6666	-62.869625	76.589935	1556.2489	-223.63232	-52.064014	1526.0544	-226.49327	21.192892	1332.3323	-233.2103	-2.4142642	1128.5897	-260.03888	48.493462	1276.4523	-37.416977	45.211403	1082.1836	15.079331	-77.289886	1268.959	-246.13098	162.84499	1333.4921	-173.41127	253.95837	1196.8716	-158.29308	274.65045	998.65485	-167.34499	282.5127	873.97485	-90.546417	258.99576	792.77655	-67.184059	297.67374	789.40558	-143.08154	318.35458	719.35828	-74.750038	-88.88755	1350.4532	-127.20318	-151.28725	1238.0581	14.18081	-186.64157	1130.3535	78.039261	-132.54324	1163.8004	154.07375	-78.481369	1073.0845	285.37866	-157.94841	1065.8549	286.38901	-100.36154	1071.83	374.7366	154.61403	893.95972	-30.695261	-111.25881	878.8476	-21.8936	55.525963	946.5766	-244.55786	-34.016048	944.80811	-243.49557
421	4.2	100.92533	1565.2214	-63.227379	-40.204369	1558.8047	-62.685246	76.712288	1556.0901	-223.59868	-51.955505	1526.0131	-226.3055	21.16168	1332.3491	-233.21291	-2.3964787	1128.48	-259.96814	48.312519	1276.4257	-37.444092	45.403748	1082.1702	15.355757	-77.116821	1268.8533	-246.14069	162.7682	1333.5024	-173.41022	253.88039	1196.9005	-158.38742	274.62357	998.7392	-167.59814	282.63458	873.93042	-91.066208	259.11435	792.61865	-67.877632	297.88846	789.51715	-143.79268	318.4675	719.18213	-75.692764	-89.092079	1350.472	-127.416	-152.6194	1236.606	13.16265	-188.20844	1128.3867	76.120094	-134.46359	1161.7661	152.37105	-80.550812	1071.0273	283.83328	-160.16925	1063.5646	284.45612	-102.86209	1069.2615	372.96039	154.82701	893.76709	-31.10544	-110.82743	878.68164	-21.068804	55.023529	946.79401	-244.47105	-34.500092	944.95685	-243.01772
422	4.21	101.25143	1565.2234	-63.219376	-39.900558	1558.8969	-62.480927	76.861855	1556.0164	-223.53394	-51.806831	1526.0275	-226.11508	21.195986	1332.233	-233.33652	-2.4295614	1128.2551	-259.93195	48.175674	1276.4724	-37.612446	45.558174	1082.2317	15.63823	-76.870087	1268.6466	-246.18498	162.73009	1333.475	-173.53284	253.76164	1196.8303	-158.66995	274.65479	998.76996	-167.90454	282.67514	873.84424	-91.609352	259.24075	792.40967	-68.584335	298.07065	789.54126	-144.43427	318.57773	719.01147	-76.597832	-89.27578	1350.5295	-127.71836	-153.86209	1235.8828	12.380527	-189.62975	1127.3453	74.592583	-136.37193	1160.7697	151.11996	-83.326752	1070.5413	282.88483	-162.74165	1062.6189	283.05243	-106.07985	1068.4146	372.09894	155.29617	893.78894	-31.447582	-110.40478	878.50995	-20.361965	54.528519	946.92145	-244.40434	-34.989723	944.99084	-242.55811
423	4.22	101.55987	1565.1909	-63.137436	-39.627369	1558.9524	-62.33696	77.011902	1556.0103	-223.45392	-51.659039	1526.077	-225.88243	21.254486	1332.0598	-233.43718	-2.4611413	1127.951	-259.88687	48.078026	1276.5836	-37.957748	45.681091	1082.3668	15.872145	-76.652252	1268.3947	-246.25911	162.7793	1333.4139	-173.77765	253.73965	1196.7274	-159.01083	274.69055	998.72302	-168.27657	282.70157	873.73523	-92.124046	259.32425	792.20789	-69.298668	298.18564	789.52332	-145.10924	318.59174	718.82111	-77.512482	-89.428802	1350.6576	-128.06068	-155.05583	1235.5847	11.637017	-190.98915	1126.9791	73.470459	-138.59024	1160.6553	150.18037	-86.305458	1071.6948	283.04318	-165.68369	1062.8566	282.30353	-110.08409	1069.3206	372.05914	155.72609	893.87195	-31.784386	-109.8679	878.37628	-19.569532	54.000305	947.0011	-244.26932	-35.552746	944.96289	-241.9664
424	4.23	101.86388	1565.1466	-63.013046	-39.334282	1558.9285	-62.129139	77.188278	1556.0742	-223.33842	-51.504158	1526.1567	-225.68994	21.307289	1331.9437	-233.70322	-2.5462246	1127.5801	-259.76965	47.959217	1276.6588	-38.280762	45.785061	1082.5165	15.96744	-76.391815	1268.1199	-246.32788	162.82318	1333.2927	-174.2471	253.73212	1196.5751	-159.47823	274.73846	998.59937	-168.66173	282.75162	873.57336	-92.6082	259.3645	792.02075	-69.887108	298.25647	789.39795	-145.76968	318.62997	718.60974	-78.086029	-89.505211	1350.8472	-128.49786	-156.1142	1235.7046	11.076215	-192.36826	1126.9498	72.588188	-141.18439	1161.4235	149.64124	-89.62262	1074.1718	283.87607	-168.77312	1064.1873	282.11331	-114.66435	1071.9674	372.70813	156.14461	893.86963	-32.23579	-109.01776	878.13324	-18.57548	53.512997	947.03265	-244.18631	-36.029751	945.07355	-241.62514
425	4.24	102.07436	1565.0944	-62.95295	-39.077587	1558.8252	-61.942036	77.349113	1556.1815	-223.20699	-51.318054	1526.2272	-225.51497	21.292921	1331.8196	-233.99597	-2.6605768	1127.2588	-259.70825	47.927704	1276.7917	-38.797672	45.920059	1082.6722	16.054193	-76.175476	1267.9174	-246.43039	162.84669	1333.085	-174.82846	253.74698	1196.3938	-160.10503	274.70468	998.40857	-169.1647	282.81516	873.37299	-93.091728	259.44315	791.82245	-70.417419	298.32016	789.27472	-146.32336	318.70819	718.37628	-78.744873	-89.562836	1351.0165	-128.96219	-157.10884	1236.2677	10.770847	-193.72821	1127.3872	72.227844	-143.92476	1163.0282	149.64262	-92.916206	1077.7842	285.20175	-171.91165	1066.714	282.55582	-119.23036	1076.0529	373.74384	156.56818	893.88818	-32.547798	-109.03069	878.09442	-18.138674	53.023102	947.03064	-244.10315	-36.631195	945.35571	-241.16177
426	4.25	102.33257	1564.9827	-62.860088	-38.845219	1558.6958	-61.777111	77.497108	1556.2852	-223.13585	-51.158581	1526.2871	-225.41133	21.261379	1331.6726	-234.31848	-2.8640501	1126.9785	-259.68942	48.024986	1276.8793	-39.166599	46.056774	1082.7684	15.943066	-76.072975	1267.6615	-246.57033	162.83105	1332.8267	-175.5164	253.73572	1196.1833	-160.86481	274.62326	998.19031	-169.79333	282.93427	873.18463	-93.68335	259.58203	791.60187	-71.008224	298.4104	789.05725	-146.88087	318.73795	718.13751	-79.371834	-89.487892	1351.1985	-129.34961	-157.9868	1237.3319	10.748771	-195.10329	1128.6161	72.438454	-146.46437	1165.603	149.98944	-96.005173	1082.2693	286.93759	-174.82324	1070.6407	283.6239	-123.2172	1081.3218	375.31192	157.03049	893.91144	-32.902328	-108.66911	878.06915	-17.485657	52.609226	947.02496	-244.07404	-37.070755	945.28845	-240.67737
427	4.26	102.51688	1564.8804	-62.725136	-38.590954	1558.5634	-61.610619	77.691093	1556.3397	-223.02849	-50.983841	1526.3722	-225.38629	21.204481	1331.433	-234.72365	-3.1408114	1126.692	-259.69067	48.25462	1277.0087	-39.627701	46.364147	1082.9425	15.807251	-76.07991	1267.4728	-246.79111	162.80141	1332.5736	-176.25835	253.72017	1195.9297	-161.68245	274.47852	997.91071	-170.48593	283.09818	873.01489	-94.321129	259.7189	791.45874	-71.492821	298.39246	788.84564	-147.37776	318.90286	717.96637	-79.918427	-89.290207	1351.4247	-129.88199	-158.79178	1238.9404	10.76339	-196.51016	1130.8329	73.059242	-148.52461	1169.0542	150.52235	-98.661446	1087.6711	288.99564	-177.37383	1075.8464	285.25266	-126.52369	1087.6334	377.18341	157.46088	893.95288	-33.205532	-108.22208	877.99078	-16.901924	52.169121	946.95026	-244.04256	-37.395977	945.06085	-240.31136
